<mxfile host="app.diagrams.net" agent="Mozilla/5.0 (Macintosh; Intel Mac OS X 10_15_7) AppleWebKit/605.1.15 (KHTML, like Gecko) Version/18.1.1 Safari/605.1.15" version="26.0.3">
  <diagram name="Pagina-1" id="8O2XWXMkjmBcErXYh84l">
    <mxGraphModel grid="1" page="1" gridSize="10" guides="1" tooltips="1" connect="1" arrows="1" fold="1" pageScale="1" pageWidth="827" pageHeight="1169" background="none" math="0" shadow="0">
      <root>
        <mxCell id="0" />
        <mxCell id="1" parent="0" />
        <mxCell id="sNEsgXiwj42dayFUE72a-7" value="&lt;font&gt;Model&lt;/font&gt;" style="shape=folder;fontStyle=1;spacingTop=10;tabWidth=40;tabHeight=14;tabPosition=left;html=1;whiteSpace=wrap;color=#808080;fillColor=#f5f5f5;fontColor=#333333;strokeColor=#666666;fontSize=18;" vertex="1" parent="1">
          <mxGeometry x="160" y="520" width="160" height="120" as="geometry" />
        </mxCell>
        <mxCell id="sNEsgXiwj42dayFUE72a-9" value="&lt;font&gt;Driver&lt;/font&gt;" style="shape=folder;fontStyle=1;spacingTop=10;tabWidth=40;tabHeight=14;tabPosition=left;html=1;whiteSpace=wrap;fontSize=18;" vertex="1" parent="1">
          <mxGeometry x="280" y="40" width="160" height="120" as="geometry" />
        </mxCell>
        <mxCell id="pvQOr8x9YlkpNRXA49Ut-3" style="edgeStyle=none;curved=0;rounded=0;orthogonalLoop=1;jettySize=auto;html=1;fontSize=18;startSize=8;endSize=8;endArrow=none;endFill=0;" edge="1" parent="1" source="sNEsgXiwj42dayFUE72a-10">
          <mxGeometry relative="1" as="geometry">
            <mxPoint x="240" y="440" as="targetPoint" />
            <Array as="points">
              <mxPoint x="120" y="440" />
            </Array>
          </mxGeometry>
        </mxCell>
        <mxCell id="sNEsgXiwj42dayFUE72a-10" value="&lt;div&gt;&lt;font&gt;Signup&lt;/font&gt;&lt;/div&gt;&lt;div&gt;&lt;font&gt;Submanager&lt;/font&gt;&lt;/div&gt;" style="shape=folder;fontStyle=1;spacingTop=10;tabWidth=40;tabHeight=14;tabPosition=left;html=1;whiteSpace=wrap;color=#808080;fillColor=#e1d5e7;strokeColor=#9673a6;fontSize=18;" vertex="1" parent="1">
          <mxGeometry x="40" y="240" width="160" height="120" as="geometry" />
        </mxCell>
        <mxCell id="sNEsgXiwj42dayFUE72a-11" value="&lt;span&gt;Login&lt;/span&gt;&lt;div&gt;&lt;font&gt;Submanager&lt;/font&gt;&lt;/div&gt;" style="shape=folder;fontStyle=1;spacingTop=10;tabWidth=40;tabHeight=14;tabPosition=left;html=1;whiteSpace=wrap;color=#808080;fillColor=#e1d5e7;strokeColor=#9673a6;fontSize=18;" vertex="1" parent="1">
          <mxGeometry x="280" y="240" width="160" height="120" as="geometry" />
        </mxCell>
        <mxCell id="sNEsgXiwj42dayFUE72a-20" value="" style="endArrow=none;html=1;rounded=0;entryX=0.5;entryY=1;entryDx=0;entryDy=0;entryPerimeter=0;fontSize=18;" edge="1" parent="1" target="sNEsgXiwj42dayFUE72a-11">
          <mxGeometry width="50" height="50" relative="1" as="geometry">
            <mxPoint x="240" y="440" as="sourcePoint" />
            <mxPoint x="370" y="360" as="targetPoint" />
            <Array as="points">
              <mxPoint x="360" y="440" />
            </Array>
          </mxGeometry>
        </mxCell>
        <mxCell id="pvQOr8x9YlkpNRXA49Ut-1" value="&lt;font&gt;Driver&lt;/font&gt;" style="shape=folder;fontStyle=1;spacingTop=10;tabWidth=40;tabHeight=14;tabPosition=left;html=1;whiteSpace=wrap;fontSize=18;" vertex="1" parent="1">
          <mxGeometry x="40" y="40" width="160" height="120" as="geometry" />
        </mxCell>
        <mxCell id="pvQOr8x9YlkpNRXA49Ut-9" style="edgeStyle=none;curved=1;rounded=0;orthogonalLoop=1;jettySize=auto;html=1;entryX=0.5;entryY=0.108;entryDx=0;entryDy=0;entryPerimeter=0;fontSize=18;startSize=8;endSize=8;endArrow=none;endFill=0;" edge="1" parent="1" source="pvQOr8x9YlkpNRXA49Ut-1" target="sNEsgXiwj42dayFUE72a-10">
          <mxGeometry relative="1" as="geometry" />
        </mxCell>
        <mxCell id="pvQOr8x9YlkpNRXA49Ut-10" style="edgeStyle=none;curved=1;rounded=0;orthogonalLoop=1;jettySize=auto;html=1;entryX=0.5;entryY=0.108;entryDx=0;entryDy=0;entryPerimeter=0;fontSize=18;startSize=8;endSize=8;endArrow=none;endFill=0;" edge="1" parent="1">
          <mxGeometry relative="1" as="geometry">
            <mxPoint x="359.5" y="160" as="sourcePoint" />
            <mxPoint x="359.5" y="253" as="targetPoint" />
          </mxGeometry>
        </mxCell>
        <mxCell id="pvQOr8x9YlkpNRXA49Ut-11" style="edgeStyle=none;curved=1;rounded=0;orthogonalLoop=1;jettySize=auto;html=1;entryX=0.5;entryY=0.108;entryDx=0;entryDy=0;entryPerimeter=0;fontSize=18;startSize=8;endSize=8;endArrow=none;endFill=0;" edge="1" parent="1">
          <mxGeometry relative="1" as="geometry">
            <mxPoint x="239.5" y="440" as="sourcePoint" />
            <mxPoint x="239.5" y="533" as="targetPoint" />
          </mxGeometry>
        </mxCell>
      </root>
    </mxGraphModel>
  </diagram>
</mxfile>
